<svg width="20" height="20" viewBox="0 0 20 20" fill="none" xmlns="http://www.w3.org/2000/svg">
<path d="M13.2734 5.2832C14.0279 5.34239 14.6901 5.51955 15.2597 5.81543C15.8293 6.11132 16.3057 6.53367 16.6904 7.08105C16.0102 7.48036 15.5036 7.96824 15.1708 8.54492C14.838 9.12191 14.6718 9.78078 14.6718 10.5205C14.6718 11.0973 14.7787 11.6224 14.9931 12.0957C15.2076 12.569 15.5147 12.9982 15.914 13.3828C16.1063 13.5603 16.3065 13.7165 16.5136 13.8496C16.7206 13.9827 16.9354 14.1006 17.1572 14.2041C17.1128 14.3373 17.0644 14.4747 17.0126 14.6152C16.9609 14.7556 16.9057 14.8924 16.8466 15.0254C16.7135 15.3509 16.565 15.6578 16.4023 15.9463C16.2396 16.2347 16.0623 16.5121 15.8701 16.7783C15.6185 17.1334 15.3887 17.437 15.1816 17.6885C14.9746 17.9398 14.7896 18.1392 14.6269 18.2871C14.3902 18.509 14.135 18.6795 13.8613 18.7979C13.5876 18.9162 13.3103 18.9756 13.0292 18.9756C12.8221 18.9756 12.5965 18.9459 12.3525 18.8867C12.1084 18.8275 11.8378 18.7385 11.5419 18.6201C11.2611 18.5019 10.9877 18.417 10.7216 18.3652C10.4553 18.3135 10.2034 18.2871 9.96674 18.2871C9.70045 18.2871 9.43419 18.3135 9.16791 18.3652C8.90161 18.417 8.62005 18.5018 8.32416 18.6201C8.02837 18.7384 7.76197 18.8309 7.52533 18.8975C7.28871 18.964 7.08171 18.998 6.90424 18.998C6.63812 19.0128 6.36817 18.961 6.09467 18.8428C5.82097 18.7244 5.54275 18.5386 5.26166 18.2871C5.09907 18.1245 4.9071 17.9138 4.68549 17.6553C4.46357 17.3964 4.22606 17.0818 3.97455 16.7119C3.69352 16.3273 3.43819 15.9058 3.20892 15.4473C2.97963 14.9887 2.7694 14.5002 2.57709 13.9824C2.38481 13.4204 2.24063 12.8656 2.14447 12.3184C2.04831 11.771 1.99994 11.2375 1.99994 10.7197C1.99997 10.1133 2.06701 9.55089 2.20013 9.0332C2.33328 8.51557 2.53254 8.03452 2.79877 7.59082C3.00582 7.25069 3.24255 6.94018 3.50873 6.65918C3.77501 6.37811 4.07864 6.14154 4.41888 5.94922C4.77395 5.74209 5.13259 5.58598 5.49506 5.48242C5.85739 5.3789 6.23834 5.32048 6.63763 5.30566C6.85947 5.30566 7.1149 5.33875 7.40326 5.40527C7.69175 5.47185 8.01401 5.57193 8.36908 5.70508C8.70927 5.83819 8.9943 5.93832 9.22357 6.00488C9.45267 6.07138 9.61908 6.10448 9.7226 6.10449C9.79657 6.10449 9.95937 6.06714 10.2109 5.99316C10.4623 5.91921 10.8026 5.80132 11.2314 5.63867C11.6308 5.49073 12.0015 5.38633 12.3417 5.32715C12.6818 5.26805 12.9924 5.25363 13.2734 5.2832ZM13.4091 1.37695C13.4091 1.82079 13.3244 2.25414 13.1542 2.67578C12.9841 3.09725 12.7364 3.50025 12.4111 3.88477C12.0116 4.3434 11.5783 4.69869 11.1122 4.9502C10.6463 5.20158 10.1544 5.30512 9.63666 5.26074C9.62192 5.20174 9.61423 5.14637 9.6142 5.09473V4.92773C9.61422 4.48406 9.70336 4.04036 9.8808 3.59668C10.0583 3.15284 10.3179 2.74584 10.6581 2.37598C10.8208 2.18378 11.0092 2.00639 11.2236 1.84375C11.4381 1.68101 11.6713 1.54023 11.9228 1.42188C12.1889 1.28881 12.4401 1.18864 12.6767 1.12207C12.9134 1.05549 13.1509 1.01479 13.3876 1L13.4091 1.37695Z" fill="#303638"/>
</svg>
