<svg width="57" height="48" viewBox="0 0 57 48" fill="none" xmlns="http://www.w3.org/2000/svg">
<path d="M49.7756 3.09244C40.6537 -3.55468 30.6911 3.26288 28.8416 4.669C28.6734 4.79683 28.4212 4.75422 28.253 4.62639C20.014 -3.46946 2.48486 -0.912873 0.214904 12.0831C-1.92894 24.2269 12.4474 33.8141 21.9476 39.0977C27.6225 42.2508 28.0429 45.7874 27.7486 47.6622C27.7066 47.9605 28.1269 48.1309 28.2951 47.8753C30.3128 45.0204 30.8593 41.1003 30.7332 38.0324C30.565 32.4932 24.5539 33.388 22.9565 32.2375C21.5273 31.2149 22.7463 28.5731 23.0405 28.0617C23.0826 28.0191 23.0826 27.9339 23.0405 27.8913C22.368 26.8687 23.0826 25.9313 23.2928 25.6756C23.3348 25.633 23.3348 25.5904 23.2928 25.5478C22.8304 24.4825 23.3348 24.1843 23.6711 23.7582C24.0074 23.3321 24.5118 22.9912 24.0074 22.4373C23.545 21.8833 22.8724 21.3294 23.2507 20.605C23.5029 20.0511 25.0583 19.7102 25.9411 18.858C25.857 18.8154 25.7729 18.7728 25.6888 18.7302C25.5627 18.645 25.4366 18.5598 25.3525 18.4319C25.2685 18.3041 25.1844 18.2189 25.1003 18.0911C25.1844 18.2189 25.2685 18.3041 25.3946 18.3893C25.5207 18.4746 25.6048 18.5598 25.7309 18.6024C25.857 18.645 25.9831 18.6876 26.1092 18.6876C26.3194 18.4319 26.4875 18.1337 26.5296 17.7928C26.7818 15.7901 27.2442 13.2762 28.5053 11.1031C29.7663 8.92998 31.2376 7.43863 34.054 13.617C36.324 18.645 39.5608 20.3068 40.7378 20.7755C40.99 20.8607 41.0741 21.159 40.99 21.372C37.6691 30.2775 40.1073 36.7541 41.0741 38.7568C41.2422 39.0977 41.6626 39.2681 42.0409 39.0551C49.8596 34.7089 53.811 27.9765 53.811 27.9765C57.5523 22.6077 59.8643 10.4213 49.7756 3.09244Z" fill="url(#paint0_linear_309_241)"/>
<defs>
<linearGradient id="paint0_linear_309_241" x1="42.6636" y1="58.2958" x2="19.7982" y2="-8.89579" gradientUnits="userSpaceOnUse">
<stop offset="0.0137453" stop-color="#E30613"/>
<stop offset="1" stop-color="#E6007E"/>
</linearGradient>
</defs>
</svg>
