<svg width="14" height="15" viewBox="0 0 14 15" fill="none" xmlns="http://www.w3.org/2000/svg">
<path d="M7.42294 8.70307C7.29339 8.77446 7.14789 8.8119 6.99998 8.8119C6.85207 8.8119 6.70657 8.77446 6.57703 8.70307L0.437592 5.31616V11.6562C0.437939 12.0042 0.576331 12.3378 0.822398 12.5839C1.06846 12.83 1.4021 12.9683 1.75009 12.9687H12.2501C12.5981 12.9683 12.9317 12.83 13.1778 12.5839C13.4239 12.3378 13.5622 12.0042 13.5626 11.6562V5.31616L7.42294 8.70307Z" fill="#ADB5BD"/>
<path d="M12.2505 2.03125H1.75055C1.40256 2.0316 1.06892 2.16999 0.822855 2.41606C0.576789 2.66212 0.438397 2.99576 0.438049 3.34375V4.4375C0.438034 4.47664 0.44852 4.51506 0.468412 4.54877C0.488304 4.58247 0.516874 4.61022 0.551143 4.62912L6.89489 8.12912C6.92725 8.14697 6.9636 8.15633 7.00055 8.15633C7.0375 8.15633 7.07385 8.14697 7.10621 8.12912L13.45 4.62912C13.4842 4.61022 13.5128 4.58247 13.5327 4.54877C13.5526 4.51506 13.5631 4.47664 13.563 4.4375V3.34375C13.5627 2.99576 13.4243 2.66212 13.1782 2.41606C12.9322 2.16999 12.5985 2.0316 12.2505 2.03125Z" fill="#ADB5BD"/>
</svg>
