<svg width="20" height="20" viewBox="0 0 20 20" fill="none" xmlns="http://www.w3.org/2000/svg">
<path fill-rule="evenodd" clip-rule="evenodd" d="M19.1314 10.3346C19.1314 9.69529 19.073 9.08003 18.9643 8.48999H10.3051V11.9786H15.2531C15.04 13.106 14.3922 14.061 13.4186 14.7007V16.9634H16.3899C18.1286 15.3931 19.1314 13.0811 19.1314 10.3346Z" fill="#4285F4"/>
<path fill-rule="evenodd" clip-rule="evenodd" d="M10.3051 19.1486C12.7875 19.1486 14.8686 18.3411 16.3899 16.9634L13.4186 14.7007C12.5954 15.2418 11.542 15.5617 10.3051 15.5617C7.91036 15.5617 5.88377 13.9754 5.16072 11.8434H2.0889V14.1802C3.60163 17.1277 6.71085 19.1486 10.3051 19.1486Z" fill="#34A853"/>
<path fill-rule="evenodd" clip-rule="evenodd" d="M5.16077 11.8433C4.97689 11.3022 4.87249 10.724 4.87249 10.1297C4.87249 9.5355 4.97689 8.95731 5.16077 8.41619V6.07935H2.08895C1.46641 7.29687 1.11111 8.67452 1.11111 10.1297C1.11111 11.585 1.46641 12.9626 2.08895 14.1801L5.16077 11.8433Z" fill="#FBBC05"/>
<path fill-rule="evenodd" clip-rule="evenodd" d="M10.3051 4.69794C11.655 4.69794 12.867 5.15308 13.8199 6.04654L16.4569 3.45977C14.8643 2.00493 12.7832 1.11108 10.3051 1.11108C6.71124 1.11108 3.60163 3.13227 2.0889 6.07941L5.16072 8.41625C5.88377 6.28462 7.91075 4.69794 10.3051 4.69794Z" fill="#EA4335"/>
</svg>
