<svg width="20" height="20" viewBox="0 0 20 20" fill="none" xmlns="http://www.w3.org/2000/svg">
<path d="M9.99988 7.1875C6.548 7.1875 3.74988 9.98562 3.74988 13.4375C3.74988 16.8894 6.548 19.6875 9.99988 19.6875C13.4518 19.6875 16.2499 16.8894 16.2499 13.4375C16.2499 9.98562 13.4518 7.1875 9.99988 7.1875ZM10.3124 14.3469V16.25H9.68738V14.3469C8.80081 14.1978 8.12488 13.4287 8.12488 12.5C8.12488 11.4644 8.96425 10.625 9.99988 10.625C11.0355 10.625 11.8749 11.4644 11.8749 12.5C11.8749 13.4287 11.1989 14.1978 10.3124 14.3469Z" fill="#ADB5BD"/>
<path d="M6.56277 7.4875V4.375C6.56277 2.47969 8.10496 0.9375 10.0003 0.9375C11.8956 0.9375 13.4378 2.47969 13.4378 4.375H14.0628C14.0628 2.135 12.2403 0.3125 10.0003 0.3125C7.76027 0.3125 5.93777 2.135 5.93777 4.375V7.89562C6.13809 7.74844 6.34684 7.6125 6.56277 7.4875Z" fill="#ADB5BD"/>
</svg>
