<svg width="18" height="18" viewBox="0 0 18 18" fill="none" xmlns="http://www.w3.org/2000/svg">
<path d="M9 16.5C13.1421 16.5 16.5 13.1421 16.5 9C16.5 4.85786 13.1421 1.5 9 1.5C4.85786 1.5 1.5 4.85786 1.5 9C1.5 13.1421 4.85786 16.5 9 16.5Z" fill="#ECEFF2"/>
<path d="M4.19629 14.76C5.49749 15.8464 7.17245 16.5001 9.0001 16.5001C10.8278 16.5001 12.5027 15.8464 13.8039 14.76C12.6985 13.3174 10.9579 12.3872 9.0001 12.3872C7.04228 12.3872 5.30173 13.3174 4.19629 14.76Z" fill="#8898AA"/>
<path d="M9.00003 11.1774C10.6034 11.1774 11.9033 9.8776 11.9033 8.2742C11.9033 6.67079 10.6034 5.37097 9.00003 5.37097C7.39662 5.37097 6.0968 6.67079 6.0968 8.2742C6.0968 9.8776 7.39662 11.1774 9.00003 11.1774Z" fill="#8898AA"/>
</svg>
